<svg xmlns="http://www.w3.org/2000/svg" viewBox="0 0 100 100" fill="none" stroke="#1eb1b8" stroke-width="2" stroke-linecap="round" stroke-linejoin="round">
  <circle cx="50" cy="50" r="46"/>
  <ellipse cx="38" cy="32" rx="12" ry="4"/>
  <path d="M26 32 L26 60 C26 62, 31 64, 38 64 C45 64, 50 62, 50 60 L50 32"/>
  <path d="M26 42 C26 44, 31 46, 38 46 C45 46, 50 44, 50 42"/>
  <path d="M26 52 C26 54, 31 56, 38 56 C45 56, 50 54, 50 52"/>
  <ellipse cx="62" cy="56" rx="10" ry="3.5"/>
  <path d="M52 56 L52 74 C52 76, 56 78, 62 78 C68 78, 72 76, 72 74 L72 56"/>
  <path d="M52 65 C52 67, 56 68, 62 68 C68 68, 72 67, 72 65"/>
</svg>
