<svg xmlns="http://www.w3.org/2000/svg" viewBox="0 0 100 100" fill="none" stroke="#e2231a" stroke-width="2" stroke-linecap="round" stroke-linejoin="round">
  <circle cx="50" cy="50" r="46"/>
  <path d="M30 20 L30 45 C30 55, 38 62, 48 62 C58 62, 66 55, 66 45 L66 20"/>
  <circle cx="30" cy="18" r="3"/>
  <circle cx="66" cy="18" r="3"/>
  <path d="M48 62 L48 70 C48 76, 53 80, 59 80 C65 80, 70 76, 70 70"/>
  <path d="M70 70 C70 66, 73 64, 76 66 C79 68, 79 73, 76 75 C73 77, 70 74, 70 70 Z"/>
  <circle cx="76" cy="71" r="1.5" fill="#e2231a"/>
</svg>
