<svg xmlns="http://www.w3.org/2000/svg" viewBox="0 0 100 100" fill="none" stroke="#00a651" stroke-width="2" stroke-linecap="round" stroke-linejoin="round">
  <circle cx="50" cy="50" r="46"/>
  <circle cx="28" cy="34" r="6"/>
  <g stroke-linecap="round">
    <line x1="28" y1="22" x2="28" y2="26"/>
    <line x1="28" y1="42" x2="28" y2="46"/>
    <line x1="16" y1="34" x2="20" y2="34"/>
    <line x1="36" y1="34" x2="40" y2="34"/>
    <line x1="20" y1="26" x2="22" y2="28"/>
    <line x1="34" y1="40" x2="36" y2="42"/>
    <line x1="36" y1="26" x2="34" y2="28"/>
    <line x1="22" y1="40" x2="20" y2="42"/>
  </g>
  <path d="M50 22 C42 32, 40 46, 50 60 C60 46, 58 32, 50 22 Z"/>
  <path d="M50 30 L50 60"/>
  <path d="M60 60 C68 52, 78 50, 84 56 C82 64, 74 70, 66 68 Z"/>
  <path d="M20 70 Q30 64 40 70 T60 70 T80 70"/>
  <path d="M20 78 Q30 72 40 78 T60 78 T80 78"/>
</svg>
